<svg xmlns="http://www.w3.org/2000/svg" width="375" viewBox="0 0 375 375" height="375" version="1.0"><g><g><g><path d="M 20.933594 -83.320312 C 27.152344 -113.167969 35.027344 -142.601562 46.429688 -170.789062 C 51.402344 -182.808594 56.375 -194.832031 61.558594 -206.644531 C 62.800781 -209.546875 61.972656 -210.582031 59.484375 -211.414062 C 55.753906 -212.863281 54.304688 -210.375 52.851562 -207.890625 C 47.671875 -198.355469 43.320312 -188.40625 38.964844 -178.457031 C 24.871094 -145.5 15.960938 -111.09375 9.121094 -76.066406 C 4.351562 -52.230469 1.65625 -27.980469 -1.449219 -3.730469 C -1.65625 -1.449219 -1.65625 0.414062 0.621094 1.65625 C 4.765625 3.9375 7.253906 2.902344 8.082031 -1.65625 C 11.8125 -22.59375 17.617188 -42.902344 24.664062 -63.007812 C 32.957031 -86.429688 43.734375 -108.816406 55.546875 -130.785156 C 75.03125 -166.851562 97.414062 -201.257812 125.605469 -231.308594 C 142.183594 -249.136719 160.21875 -265.300781 182.1875 -276.703125 C 190.6875 -281.261719 199.390625 -284.785156 209.132812 -285.820312 C 219.289062 -286.648438 224.054688 -283.335938 226.75 -273.59375 C 228.824219 -265.921875 228.410156 -258.046875 227.371094 -250.171875 C 224.261719 -227.164062 216.179688 -205.402344 207.058594 -184.054688 C 193.171875 -151.304688 176.589844 -119.800781 161.253906 -87.675781 C 149.855469 -63.632812 138.867188 -39.378906 132.238281 -13.472656 C 130.578125 -7.253906 129.75 -1.035156 128.921875 5.390625 C 128.503906 7.460938 129.542969 9.121094 131.613281 9.949219 C 133.6875 10.777344 135.34375 10.984375 137.832031 9.535156 C 140.941406 7.667969 142.601562 4.558594 144.878906 1.867188 C 154.414062 -9.328125 165.398438 -19.070312 177.628906 -27.566406 C 186.332031 -33.578125 195.246094 -39.589844 205.402344 -43.527344 C 210.789062 -45.390625 211.828125 -44.976562 212.863281 -39.171875 C 213.898438 -33.578125 214.105469 -27.980469 214.519531 -22.386719 C 215.765625 -5.390625 227.992188 4.765625 244.988281 2.695312 C 254.109375 1.65625 263.023438 -0.828125 271.726562 -4.144531 C 292.039062 -11.8125 310.902344 -22.386719 329.96875 -32.332031 C 331.835938 -33.371094 333.492188 -34.613281 335.359375 -35.648438 C 337.015625 -36.6875 336.394531 -37.515625 334.945312 -37.929688 C 333.699219 -38.550781 332.25 -38.34375 331.003906 -37.929688 C 328.105469 -36.6875 324.996094 -35.648438 322.300781 -34.199219 C 309.65625 -27.152344 297.011719 -20.3125 283.75 -14.300781 C 270.898438 -8.289062 257.425781 -3.523438 243.125 -1.867188 C 235.457031 -1.035156 231.515625 -3.523438 228.824219 -10.777344 C 228.410156 -12.4375 227.785156 -14.300781 227.578125 -16.167969 C 226.75 -22.800781 226.335938 -29.433594 225.507812 -36.066406 C 224.46875 -44.355469 220.117188 -48.292969 212.035156 -49.742188 C 205.195312 -50.78125 199.183594 -48.914062 193.378906 -45.804688 C 177.421875 -37.308594 162.496094 -27.773438 148.816406 -15.753906 C 147.988281 -14.921875 147.367188 -13.886719 145.5 -13.679688 C 149.023438 -25.078125 152.753906 -35.855469 157.316406 -46.636719 C 169.542969 -76.894531 184.261719 -105.914062 198.769531 -135.136719 C 210.996094 -159.804688 222.8125 -184.675781 231.308594 -210.996094 C 236.492188 -226.75 240.015625 -242.917969 240.015625 -259.5 C 240.222656 -279.394531 227.578125 -291.625 207.679688 -291.210938 C 204.15625 -291.210938 200.425781 -290.796875 197.109375 -289.964844 C 186.332031 -287.273438 176.382812 -282.503906 167.058594 -276.703125 C 144.878906 -263.230469 126.433594 -245.613281 109.851562 -226.128906 C 75.03125 -185.296875 48.5 -139.285156 26.738281 -90.574219 C 24.25 -84.773438 21.761719 -78.96875 19.070312 -72.542969 C 18.859375 -73.371094 18.859375 -73.785156 18.859375 -73.996094 C 19.484375 -77.101562 20.105469 -80.210938 20.933594 -83.320312 Z M 20.933594 -83.320312" transform="translate(22.479 334.76)"/></g></g></g></svg>