<svg xmlns="http://www.w3.org/2000/svg" width="810" viewBox="0 0 810 810" height="810" version="1.0"><defs><clipPath id="a"><path d="M 160.804688 356 L 616.804688 356 L 616.804688 791 L 160.804688 791 Z M 160.804688 356"/></clipPath></defs><path fill="#1C1E12" d="M 613.203125 621.78125 L 609.238281 610.640625 L 605.371094 599.53125 L 601.28125 588.894531 L 591.847656 580.898438 L 581.101562 585.410156 L 577.246094 597.167969 L 576.726562 596.367188 L 577.023438 595.457031 C 575.261719 592.742188 573.347656 590.082031 571.3125 587.457031 C 565.402344 579.847656 561.1875 572.886719 558.503906 565.65625 L 557.796875 565.878906 L 557.535156 565.183594 L 562.417969 563.636719 L 570.957031 555.738281 L 574.589844 542.753906 L 563.640625 535.1875 L 554.917969 534.382812 L 555.011719 533.644531 L 555.753906 533.714844 C 555.839844 533.03125 555.910156 532.371094 556.011719 531.675781 C 557.738281 519.800781 558.5625 508.335938 557.757812 496.347656 C 557.386719 490.75 556.714844 484.945312 555.699219 479.117188 L 554.953125 479.171875 L 554.824219 478.4375 L 564.0625 477.726562 L 575.617188 477.640625 L 572.90625 466.660156 L 568.9375 455.519531 L 565.070312 444.410156 L 560.980469 433.773438 L 551.542969 425.78125 L 540.800781 430.289062 L 538.75 436.546875 L 538.207031 435.808594 L 538.496094 434.9375 C 531.488281 425.351562 522.242188 417.746094 510.152344 413.738281 C 509.042969 413.367188 507.964844 413.0625 506.910156 412.804688 C 506.621094 412.734375 506.34375 412.6875 506.058594 412.628906 C 502.09375 401.652344 498.777344 391.226562 495.941406 380.785156 C 484.054688 337.027344 470.523438 299.109375 454.578125 264.867188 C 439.386719 232.242188 430.578125 196.042969 422.054688 161.035156 L 421.457031 158.570312 L 421.457031 158.46875 C 421.679688 148.824219 422.332031 139.050781 422.964844 129.597656 C 423.753906 117.726562 424.574219 105.453125 424.550781 93.347656 C 424.519531 79.355469 424.480469 58.207031 412.160156 47.574219 C 411.667969 47.148438 411.089844 46.921875 410.496094 46.921875 C 409.796875 46.921875 409.121094 47.242188 408.6875 47.777344 C 408.238281 48.332031 408.082031 49.0625 408.246094 49.84375 C 413.554688 74.953125 412.945312 100.511719 412.359375 125.234375 C 412.199219 131.921875 412.03125 138.832031 411.976562 145.773438 C 402.136719 199.582031 384.488281 252.277344 367.425781 303.238281 C 358.65625 329.425781 349.589844 356.503906 341.695312 383.390625 C 341.453125 383.339844 341.210938 383.28125 340.964844 383.234375 C 334.53125 381.964844 327.734375 381.59375 320.652344 382.238281 L 320.269531 382.714844 L 320.496094 383 L 318.972656 383.136719 L 327.9375 371.964844 L 325.839844 360.503906 L 313.988281 356.972656 L 302.863281 359.359375 L 291.414062 362.199219 L 279.992188 364.941406 L 269.242188 368.691406 L 275.511719 378.457031 L 281.289062 389.023438 L 287.175781 396.417969 L 286.585938 396.871094 L 286.121094 396.289062 C 277.308594 403.070312 269.707031 411.640625 263.285156 420.644531 C 261.484375 423.171875 259.769531 425.75 258.089844 428.355469 L 259.375 427.75 C 259.15625 428.085938 258.945312 428.40625 258.71875 428.757812 L 258.601562 428.9375 L 252.957031 431.613281 L 243.515625 419.6875 L 231.191406 414.65625 L 222.300781 424.796875 L 220.347656 436.257812 L 223.546875 447.726562 L 230.496094 457.550781 L 235.367188 463.773438 L 234.933594 464.238281 C 234.90625 464.265625 234.878906 464.292969 234.851562 464.320312 L 234.386719 463.730469 C 224.753906 474.070312 213.636719 478.722656 200.734375 480.617188 L 201.363281 481.269531 C 201.1875 481.296875 201.019531 481.328125 200.839844 481.355469 L 200.464844 481.410156 L 199.476562 480.390625 L 188.296875 481.007812 L 184.828125 469.121094 L 177.226562 461.679688 L 167.597656 466.496094 L 162.671875 474.425781 L 161.582031 483.941406 L 163.785156 493.390625 L 166.441406 502.742188 L 170.742188 511.664062 L 174.144531 520.179688 L 181.46875 515.023438 L 188.699219 508.761719 L 195.9375 502.585938 L 202.730469 496.402344 L 206.171875 486.390625 L 206.300781 486.363281 L 206.792969 486.871094 L 206.734375 487.039062 C 217.15625 485.007812 226.773438 480.804688 235.894531 472.367188 C 237.015625 471.328125 238.097656 470.261719 239.148438 469.164062 L 238.597656 468.660156 C 238.601562 468.65625 238.605469 468.652344 238.613281 468.648438 L 239.113281 468.121094 L 246.976562 475.234375 L 254.984375 483.558594 L 261.089844 474.035156 L 266.445312 463.5 L 271.855469 453.042969 L 276.761719 442.757812 L 276.078125 430.414062 L 267.136719 426.480469 L 267.550781 425.847656 L 268.242188 426.152344 C 271.246094 421.554688 274.417969 417.105469 277.96875 412.988281 C 281.765625 408.585938 285.945312 404.71875 290.417969 401.421875 L 289.921875 400.863281 C 289.941406 400.851562 289.957031 400.835938 289.972656 400.824219 L 290.523438 400.417969 L 296.820312 407.574219 L 307.234375 413.347656 L 318.84375 414.105469 L 330.769531 407.808594 L 328.726562 394.65625 L 323.289062 387.746094 L 324.183594 387.679688 L 324.734375 388.382812 C 329.539062 388.011719 334.417969 388.183594 339.304688 388.945312 C 339.550781 388.984375 339.796875 389.035156 340.042969 389.078125 L 340.019531 389.152344 C 334.167969 409.511719 329.511719 428.113281 325.789062 446.011719 C 325.527344 446.058594 325.261719 446.089844 325 446.144531 C 315.523438 447.980469 306.726562 453.09375 300.242188 462.171875 C 288.695312 478.332031 287.203125 498.625 288.148438 519.652344 L 288.15625 519.683594 L 287.414062 519.753906 L 286.234375 511.128906 L 276.46875 504.765625 L 265.753906 510.933594 L 259.832031 520.648438 L 254.011719 530.910156 L 248.148438 541.085938 L 243.476562 551.464844 L 254.878906 553.632812 L 266.527344 556.710938 L 278.609375 557.753906 L 290.671875 558.203125 L 291.617188 557.90625 L 291.660156 558.671875 L 290.925781 558.902344 C 291.480469 569.652344 291.402344 580.023438 289.660156 589.554688 L 290.46875 589.21875 C 290.441406 589.371094 290.421875 589.535156 290.390625 589.691406 L 290.320312 590.089844 L 282.234375 593.480469 L 277.949219 606.566406 L 262.796875 605.21875 L 250.667969 610.699219 L 251.910156 624.125 L 258.886719 633.425781 L 262.070312 635.109375 L 261.628906 635.71875 L 260.964844 635.367188 C 254.917969 643.695312 249.90625 652.101562 248.425781 660.4375 L 249.125 660.773438 L 248.988281 661.535156 L 239.375 656.894531 L 229.875 666.457031 L 227.210938 677.777344 L 229.691406 689.421875 L 236.015625 699.660156 L 242.824219 709.585938 L 251.359375 718.328125 L 258.839844 727.140625 L 265.527344 718.015625 L 271.527344 707.824219 L 277.199219 698.355469 L 277.832031 698.746094 L 277.449219 699.386719 C 298.632812 712.488281 328.554688 730.898438 328.3125 748.277344 L 329.039062 747.726562 C 329.042969 747.914062 329.0625 748.101562 329.058594 748.285156 L 329.054688 748.648438 L 323.929688 752.542969 L 315.867188 745.839844 L 307.359375 747.25 L 304.578125 756.019531 L 306.226562 764.410156 L 308.234375 773.109375 L 310.152344 781.765625 L 312.78125 789.726562 L 320.066406 785.230469 L 328.113281 781.011719 L 335.386719 775.421875 L 342.320312 769.53125 L 346.789062 761.789062 L 347.507812 753.113281 L 342.976562 744.175781 L 333.3125 745.5 L 333.195312 744.789062 C 333.191406 744.78125 333.191406 744.773438 333.191406 744.765625 L 333.929688 744.664062 C 332.601562 736.742188 327.953125 728.613281 321.871094 722.726562 C 310.257812 711.492188 295.417969 703.410156 281.828125 694.890625 C 281.375 694.605469 280.929688 694.324219 280.480469 694.039062 L 280.121094 694.691406 L 279.488281 694.292969 L 283.113281 687.777344 L 283.191406 675.410156 L 272.839844 670.0625 L 260.046875 675.171875 L 254.523438 667.234375 L 254.496094 667.074219 C 254.414062 666.605469 254.382812 666.125 254.332031 665.652344 L 255.230469 666.941406 C 254.105469 660.589844 255.746094 653.167969 261.425781 644.066406 C 262.789062 641.875 264.210938 639.824219 265.65625 637.851562 L 264.992188 637.5 C 265.015625 637.46875 265.035156 637.441406 265.058594 637.410156 L 265.4375 636.894531 L 269.417969 639 L 281.324219 640.714844 L 293.308594 641.859375 L 305.5 640.921875 L 317.054688 640.835938 L 314.339844 629.855469 L 310.371094 618.714844 L 306.507812 607.605469 L 302.414062 596.96875 L 295.167969 590.828125 L 295.28125 590.378906 C 295.308594 590.257812 295.328125 590.132812 295.359375 590.015625 L 296.003906 590.558594 C 298.789062 579.476562 298.941406 568.015625 298.296875 556.578125 L 297.5625 556.8125 C 297.558594 556.75 297.554688 556.683594 297.554688 556.621094 L 297.519531 556.042969 L 302.027344 554.621094 L 310.5625 546.722656 L 314.191406 533.742188 L 303.242188 526.167969 L 295.195312 525.429688 L 295.15625 524.785156 C 295.15625 524.75 295.15625 524.714844 295.152344 524.679688 L 295.902344 524.746094 C 294.84375 505.796875 295.390625 485.96875 303.625 468.742188 C 307.945312 459.703125 315.269531 454.457031 323.75 452.199219 C 324.011719 452.128906 324.28125 452.082031 324.542969 452.019531 L 324.480469 452.34375 C 323.945312 455.070312 323.441406 457.804688 322.941406 460.542969 L 322.90625 460.734375 L 322.78125 460.882812 C 312.125 473.84375 315.867188 494.324219 319.832031 516.007812 C 320.277344 518.445312 320.726562 520.902344 321.160156 523.371094 C 323.242188 535.246094 325.871094 549.179688 329.558594 562.492188 C 339.441406 598.230469 382.238281 606.160156 416.394531 606.523438 L 416.578125 606.523438 L 422.847656 609.839844 L 434.757812 611.558594 L 439.644531 612.023438 L 439.566406 612.761719 L 438.824219 612.695312 C 438.378906 616.902344 437.335938 621.015625 435.480469 624.980469 C 431.34375 633.828125 425.140625 641.167969 419.257812 648.808594 L 419.683594 649.476562 L 419.199219 650.105469 L 412.050781 638.800781 L 400.527344 637.0625 L 393.335938 647.121094 L 391.980469 658.410156 L 390.953125 670.164062 L 389.839844 681.851562 L 389.894531 693.238281 L 401.167969 690.480469 L 403.324219 690.109375 L 403.316406 690.867188 L 402.570312 690.992188 C 402.488281 700.335938 404.34375 709.753906 407.507812 718.703125 L 407.648438 718.828125 L 407.007812 719.253906 L 405.308594 717.71875 L 396.746094 718.753906 L 393.597656 727.398438 L 394.882812 735.855469 L 396.511719 744.632812 L 398.0625 753.363281 L 400.347656 761.429688 L 407.820312 757.246094 L 416.042969 753.375 L 423.542969 748.109375 L 430.726562 742.515625 L 435.519531 734.976562 L 436.605469 726.335938 L 432.46875 717.210938 L 422.613281 718.132812 L 416.515625 722.367188 L 416.257812 721.640625 L 416.894531 721.199219 C 414.953125 715.703125 412.972656 710.210938 411.457031 704.546875 C 410.125 699.582031 409.683594 694.625 409.910156 689.734375 L 409.164062 689.859375 C 409.167969 689.804688 409.164062 689.753906 409.164062 689.699219 L 409.195312 689.101562 L 413.042969 688.449219 L 424.472656 684.386719 L 435.628906 679.789062 L 444.472656 671.816406 L 448.964844 661.082031 L 446.878906 647.765625 L 433.777344 645.425781 L 425.957031 648.152344 L 426.785156 647.078125 L 428.066406 646.628906 C 435.476562 636.960938 443.257812 628.460938 445.785156 615.628906 C 445.933594 614.882812 446.046875 614.136719 446.144531 613.386719 L 445.402344 613.316406 C 445.402344 613.308594 445.402344 613.300781 445.40625 613.289062 L 445.5 612.578125 L 446.214844 612.644531 L 446.746094 612.707031 L 458.933594 611.769531 L 470.484375 611.683594 L 467.644531 600.171875 L 468.308594 599.960938 C 491.941406 592.398438 511.910156 579.726562 523.09375 565.191406 L 523.394531 564.796875 L 526.914062 565.738281 L 539 566.78125 L 550.992188 567.230469 L 551.1875 567.632812 C 551.234375 567.734375 551.292969 567.828125 551.339844 567.929688 L 551.164062 567.984375 L 550.519531 567.960938 C 555.683594 578.578125 563.707031 587.457031 570.257812 597.175781 L 571.214844 597.257812 L 571.75 598.054688 L 561.65625 597.15625 L 549.527344 602.636719 L 550.769531 616.0625 L 557.75 625.363281 L 568.277344 630.933594 L 580.183594 632.648438 L 582.113281 632.828125 L 582.078125 633.542969 C 582.078125 633.554688 582.074219 633.5625 582.074219 633.574219 L 581.332031 633.503906 C 580.636719 647.785156 574.761719 661.894531 565.136719 672.121094 L 566.285156 671.957031 C 566.082031 672.179688 565.886719 672.410156 565.679688 672.628906 L 565.5 672.820312 L 556.277344 674.128906 L 552.496094 664.355469 L 544.378906 661.445312 L 537.679688 667.753906 L 535.035156 675.886719 L 532.550781 684.464844 L 530.019531 692.964844 L 528.4375 701.195312 L 536.996094 700.808594 L 546.078125 701.039062 L 555.148438 699.695312 L 564.074219 697.921875 L 571.746094 693.332031 L 576.59375 686.097656 L 576.992188 676.089844 L 572.445312 674.316406 L 572.894531 673.695312 L 573.613281 673.976562 C 581.699219 662.820312 585.964844 647.519531 587.085938 634.050781 L 586.34375 633.980469 L 586.40625 633.242188 L 592.167969 633.796875 L 604.359375 632.855469 L 615.914062 632.769531 Z M 504.179688 424.699219 C 506.449219 431.023438 509.46875 437.300781 512.386719 443.371094 L 513.457031 445.601562 L 509.238281 447.503906 L 509.648438 451.9375 L 508.570312 451.585938 C 497.558594 447.988281 485.425781 445.878906 475.675781 444.183594 L 474.21875 443.929688 C 474.304688 443.691406 474.378906 443.453125 474.464844 443.214844 C 475.621094 440.042969 476.859375 436.898438 478.265625 433.808594 C 483.398438 422.511719 491.996094 418.203125 501.207031 418.523438 C 501.476562 418.535156 501.746094 418.566406 502.015625 418.582031 C 502.730469 420.621094 503.445312 422.660156 504.179688 424.699219 Z M 444.773438 258.414062 C 447.769531 265.652344 450.859375 272.941406 453.851562 279.992188 C 465.691406 307.90625 477.933594 336.773438 486.152344 367.105469 C 490.363281 382.644531 494.777344 397.21875 499.644531 411.65625 L 499.730469 411.90625 C 499.46875 411.902344 499.199219 411.890625 498.941406 411.898438 C 483.328125 412.273438 475.019531 426.648438 469.6875 442.363281 C 469.605469 442.601562 469.539062 442.839844 469.460938 443.078125 C 467.761719 442.765625 466.191406 442.457031 464.824219 442.15625 C 455.949219 440.179688 447.019531 438.667969 438.277344 437.660156 L 437.683594 437.589844 L 437.621094 436.996094 C 435.710938 418.621094 433.335938 399.957031 431.042969 381.90625 C 426.921875 349.484375 422.660156 315.957031 420.921875 282.902344 C 419.09375 248.238281 417.066406 207.347656 415.863281 166.917969 L 417.332031 166.722656 C 425.382812 200.074219 433.003906 229.996094 444.773438 258.414062 Z M 416.503906 62.644531 C 420.847656 74.523438 420.148438 89.898438 419.589844 102.253906 C 419.484375 104.542969 419.382812 106.714844 419.328125 108.726562 C 419.085938 116.894531 418.476562 125.171875 417.886719 133.179688 C 417.675781 136.039062 417.46875 138.902344 417.273438 141.761719 L 417.085938 142.699219 L 415.632812 142.179688 L 415.664062 141.621094 C 417.242188 114.984375 418.386719 88.925781 415.066406 62.992188 Z M 345.71875 384.3125 C 353.589844 358.617188 362.5 332.738281 371.117188 307.714844 C 386.765625 262.257812 402.945312 215.253906 413.515625 167.59375 L 414.988281 167.757812 L 414.988281 181.117188 C 414.976562 214.453125 414.96875 248.925781 416.425781 282.832031 C 418.644531 334.664062 424.601562 386.171875 430.367188 435.984375 L 430.46875 436.882812 L 429.566406 436.8125 C 423.734375 436.355469 417.882812 436.125 412.175781 436.125 C 406.957031 436.125 401.730469 436.320312 396.625 436.703125 C 396.554688 436.460938 396.5 436.210938 396.425781 435.96875 C 389.089844 411.332031 370.75 391.441406 346.429688 384.53125 C 346.191406 384.464844 345.949219 384.40625 345.710938 384.34375 Z M 329.285156 445.308594 C 333.210938 427.941406 338.03125 409.808594 344.027344 389.871094 C 344.269531 389.929688 344.511719 389.972656 344.757812 390.035156 C 348.308594 390.90625 351.851562 392.09375 355.367188 393.609375 C 373.957031 401.632812 385.554688 417.984375 391.71875 436.378906 C 391.796875 436.617188 391.867188 436.863281 391.945312 437.105469 L 391.792969 437.121094 C 376.199219 438.667969 361.054688 442.089844 346.753906 447.261719 C 346.332031 447.144531 345.914062 447.023438 345.496094 446.914062 C 340.382812 445.613281 335.144531 445.089844 330.011719 445.472656 C 329.75 445.492188 329.492188 445.527344 329.230469 445.550781 Z M 328.34375 455.714844 L 326.792969 456.820312 L 327.183594 454.953125 C 327.433594 453.753906 327.695312 452.554688 327.953125 451.351562 C 328.21875 451.3125 328.476562 451.261719 328.742188 451.226562 C 330.984375 450.941406 333.277344 450.828125 335.59375 450.898438 C 335.648438 450.902344 335.707031 450.90625 335.761719 450.910156 L 335.890625 451.582031 L 334.957031 451.984375 C 332.523438 453.0625 330.300781 454.316406 328.34375 455.714844 Z M 521.367188 442.023438 L 518.320312 443.402344 L 518.023438 442.703125 C 514.628906 434.820312 511.644531 427.480469 508.898438 420.265625 L 508.703125 419.75 C 509 419.835938 509.296875 419.910156 509.59375 420 C 515.804688 421.929688 521.90625 425.605469 527.054688 430.339844 C 530.609375 433.609375 533.683594 437.363281 536.359375 441.46875 L 536.648438 440.582031 C 536.757812 440.746094 536.875 440.894531 536.984375 441.058594 L 537.179688 441.359375 L 536.519531 443.371094 Z M 546.625 520.148438 L 537.546875 514.226562 L 537.582031 513.785156 C 538.746094 499.351562 538.632812 486.679688 537.257812 478.109375 L 537.097656 477.109375 L 539.890625 477.515625 L 550.292969 478.5 L 550.382812 479.074219 C 550.390625 479.132812 550.398438 479.199219 550.40625 479.257812 L 549.644531 479.1875 C 552.359375 496.746094 551.753906 515.066406 549.578125 529.890625 C 549.433594 530.871094 549.277344 531.867188 549.117188 532.867188 L 549.132812 532.976562 L 548.382812 532.96875 Z M 546.625 520.148438"/><path fill="#F6B745" d="M 547.914062 542 C 543.117188 543.667969 538.109375 544.082031 533.304688 545.757812 C 527.726562 547.703125 522.625 550.570312 518.015625 554.25 C 516.46875 555.484375 514.296875 553.472656 515.785156 552.023438 C 523.890625 544.152344 536.445312 536.980469 547.914062 540.480469 C 548.6875 540.714844 548.640625 541.75 547.914062 542 Z M 539.578125 445.074219 C 537.347656 443.984375 535.503906 447.0625 537.625 448.414062 C 546.742188 454.242188 557.5 459.019531 563.824219 468.140625 C 564.347656 468.886719 565.425781 468.417969 565.265625 467.535156 C 562.898438 454.398438 550.179688 450.246094 539.578125 445.074219 Z M 599.058594 624.261719 C 598.4375 622.050781 598.195312 619.945312 597.105469 617.894531 C 595.894531 615.628906 593.839844 613.570312 592.070312 611.753906 C 588.484375 608.074219 583.765625 605.304688 579.300781 602.863281 C 577.515625 601.894531 576.007812 604.5 577.714844 605.589844 C 581.496094 608.015625 585.039062 610.671875 588.238281 613.828125 C 589.878906 615.445312 591.386719 617.164062 592.738281 619.023438 C 594.183594 621.011719 596.085938 622.890625 597.257812 625.023438 C 597.800781 626.007812 599.359375 625.332031 599.058594 624.261719 Z M 550.5 685.71875 C 544.621094 686.417969 538.589844 689.605469 534.996094 694.347656 C 533.769531 695.972656 536.359375 697.773438 537.730469 696.457031 C 541.738281 692.613281 547.5625 692.179688 551.777344 688.804688 C 552.960938 687.851562 552.023438 685.542969 550.5 685.71875 Z M 550.5 685.71875"/><path fill="#F79098" d="M 508.804688 450.875 L 509.757812 461.207031 L 511.761719 463.875 C 508.046875 462.429688 503.40625 461.179688 498.519531 460.082031 C 489.144531 458.152344 479.773438 456.648438 470.347656 455.484375 C 471.664062 451.375 472.992188 447.269531 474.464844 443.214844 C 484.304688 444.929688 497.226562 447.09375 508.804688 450.875 Z M 415.351562 548.855469 L 403.167969 548.402344 L 391.042969 547.355469 L 379.273438 544.257812 L 366.996094 541.921875 L 372.050781 530.679688 L 377.953125 520.441406 L 383.765625 510.179688 L 389.800781 500.285156 L 401.078125 493.792969 L 411.503906 500.59375 L 412.261719 506.117188 C 412.160156 500.460938 412.546875 494.835938 413.53125 489.273438 C 396.414062 489.828125 379.296875 488.859375 362.179688 485.839844 C 346.140625 483.859375 317.269531 479.894531 339.722656 460.078125 C 343.929688 456.617188 349.359375 456.179688 353.875 454.800781 C 347.992188 452.460938 341.71875 451.078125 335.59375 450.898438 C 335.28125 451.035156 334.96875 451.164062 334.65625 451.300781 C 332.113281 452.429688 329.878906 453.703125 327.910156 455.101562 C 328.183594 453.808594 328.460938 452.515625 328.742188 451.226562 C 327.046875 451.441406 325.378906 451.757812 323.753906 452.191406 C 323.21875 454.917969 322.714844 457.660156 322.214844 460.398438 C 310.132812 475.089844 316.082031 498.71875 320.429688 523.488281 C 322.761719 536.773438 325.3125 549.921875 328.84375 562.679688 C 338.90625 599.046875 382.375 606.898438 416.394531 607.253906 L 411.832031 604.84375 L 404.625 595.238281 L 403.3125 581.074219 L 416.109375 575.292969 L 430.867188 576.609375 L 431.378906 575.039062 C 427.703125 565.578125 423.410156 556.214844 420.105469 547.351562 Z M 538.324219 513.847656 L 536.890625 512.910156 L 525.613281 519.402344 L 519.582031 529.296875 L 513.765625 539.554688 L 507.867188 549.796875 L 502.808594 561.039062 L 515.085938 563.371094 L 523.6875 565.636719 C 510.726562 582.480469 488.632812 594.230469 468.535156 600.660156 L 468.480469 600.441406 L 464.515625 589.308594 L 460.640625 578.175781 L 456.480469 567.355469 L 446.550781 558.945312 L 435.074219 563.765625 L 433.941406 567.21875 C 432.75 564.496094 431.617188 561.84375 430.617188 559.28125 C 428.800781 554.628906 427.207031 550.070312 425.796875 545.558594 L 426.992188 545.183594 L 435.804688 537.027344 L 439.636719 523.328125 L 428.09375 515.347656 L 419.328125 514.542969 C 418.511719 506.21875 418.4375 497.796875 419.171875 489.046875 C 424.609375 488.765625 430.042969 488.324219 435.480469 487.765625 C 434.207031 476.019531 432.878906 464.269531 431.527344 452.515625 C 424.523438 452.273438 417.457031 452.15625 410.300781 452.15625 C 406.996094 452.15625 403.269531 452.15625 399.554688 452.15625 C 399.035156 446.601562 397.980469 441.179688 396.429688 435.96875 C 407.460938 435.132812 418.554688 435.207031 429.625 436.070312 C 423.722656 385.042969 417.871094 333.949219 415.679688 282.863281 C 414.035156 244.492188 414.261719 206.136719 414.242188 167.757812 C 397.847656 241.699219 368.601562 312.167969 346.433594 384.53125 C 344.644531 384.023438 342.820312 383.59375 340.96875 383.230469 C 364.222656 304 396.355469 227.058594 411.246094 145.636719 C 411.460938 113.613281 414.242188 81.785156 407.519531 49.992188 C 406.871094 46.910156 410.300781 44.984375 412.648438 47.007812 C 424.972656 57.644531 425.269531 78.398438 425.296875 93.339844 C 425.34375 115.125 422.707031 136.746094 422.203125 158.484375 C 430.941406 194.375 439.753906 231.257812 455.253906 264.550781 C 472.738281 302.09375 485.820312 340.675781 496.660156 380.585938 C 499.644531 391.570312 503.089844 402.257812 506.914062 412.800781 C 504.054688 412.109375 501.410156 411.835938 498.9375 411.894531 C 493.972656 397.171875 489.523438 382.398438 485.429688 367.296875 C 475.167969 329.414062 459.027344 294.800781 444.082031 258.699219 C 431.957031 229.414062 424.097656 197.941406 416.601562 166.894531 C 417.753906 205.558594 419.625 244.269531 421.660156 282.863281 C 424.367188 334.285156 433.015625 385.535156 438.359375 436.917969 C 447.273438 437.945312 456.160156 439.460938 464.980469 441.425781 C 466.367188 441.734375 467.957031 442.042969 469.683594 442.363281 C 468.261719 446.550781 467.046875 450.828125 465.964844 454.964844 C 457.34375 454 448.671875 453.324219 439.902344 452.875 C 440.910156 464.242188 441.703125 475.621094 442.195312 487.007812 C 449.207031 486.148438 456.21875 485.09375 463.230469 483.859375 C 477.667969 481.875 496.917969 485.839844 509.746094 479.894531 C 515.75 477.039062 518.816406 474.519531 519.734375 472.273438 L 527.75 476.511719 L 537.996094 477.992188 C 539.519531 487.496094 539.367188 500.910156 538.324219 513.847656 Z M 416.53125 141.714844 C 417.277344 130.714844 418.261719 119.722656 418.582031 108.703125 C 418.957031 95.988281 420.90625 76.847656 415.804688 62.898438 C 419.140625 88.929688 417.96875 115.394531 416.410156 141.667969 C 416.449219 141.679688 416.488281 141.699219 416.53125 141.714844 Z M 389.445312 452.15625 C 391.390625 452.15625 393.492188 452.15625 395.644531 452.15625 C 394.738281 446.828125 393.441406 441.523438 391.71875 436.378906 C 376.101562 437.929688 360.625 441.339844 345.496094 446.914062 C 351.039062 448.328125 356.425781 450.664062 361.347656 453.808594 Z M 344.757812 390.035156 C 342.941406 389.585938 341.121094 389.226562 339.304688 388.941406 C 333.871094 407.835938 328.996094 426.875 325 446.136719 C 326.652344 445.816406 328.328125 445.59375 330.015625 445.46875 C 334.230469 426.804688 339.246094 408.351562 344.757812 390.035156 Z M 503.480469 424.953125 C 505.953125 431.839844 509.234375 438.523438 512.457031 445.234375 L 518.707031 442.414062 C 515.5 434.960938 512.453125 427.503906 509.597656 420.003906 C 506.796875 419.132812 503.976562 418.621094 501.210938 418.523438 C 501.953125 420.667969 502.707031 422.808594 503.480469 424.953125 Z M 283.757812 528.695312 C 280.113281 529.015625 277.183594 531.953125 274.332031 534.042969 C 270.496094 536.847656 266.832031 539.507812 262.378906 541.28125 C 260.738281 541.933594 261.359375 544.558594 263.132812 544 C 267.472656 542.628906 271.433594 540.578125 275.300781 538.203125 C 278.472656 536.253906 282.941406 533.933594 284.921875 530.71875 C 285.425781 529.902344 284.785156 528.605469 283.757812 528.695312 Z M 283.757812 528.695312"/><g clip-path="url(#a)"><path fill="#7EAB57" d="M 343.402344 743.351562 L 348.265625 752.953125 L 347.519531 762.007812 L 342.902344 770.003906 L 335.871094 775.980469 L 328.570312 781.589844 L 320.414062 785.878906 L 312.371094 790.847656 L 309.445312 781.988281 L 307.507812 773.257812 L 305.503906 764.566406 L 303.808594 755.964844 L 306.789062 746.578125 L 316.078125 745.042969 L 323.949219 751.582031 L 328.3125 748.265625 L 332.878906 744.796875 L 333.925781 744.652344 Z M 305.507812 641.652344 L 293.367188 642.589844 L 281.257812 641.445312 L 269.183594 639.707031 L 265.660156 637.839844 L 260.964844 635.359375 L 258.394531 634 L 251.1875 624.394531 L 249.878906 610.234375 L 262.667969 604.453125 L 277.425781 605.765625 L 281.632812 592.917969 L 289.660156 589.550781 L 293.117188 588.101562 L 296.007812 590.546875 L 303.046875 596.511719 L 307.207031 607.324219 L 311.078125 618.457031 L 315.042969 629.589844 L 318.003906 641.558594 Z M 300.4375 627.988281 C 298.699219 624.828125 295.074219 622.640625 292.496094 620.175781 C 289.15625 616.980469 286.046875 613.296875 283.363281 609.542969 C 281.902344 607.496094 278.773438 609.238281 279.960938 611.523438 C 282.164062 615.742188 284.710938 619.480469 287.960938 622.960938 C 290.816406 626.019531 294.734375 630.007812 299.164062 630.207031 C 300.316406 630.265625 300.953125 628.925781 300.4375 627.988281 Z M 468.535156 600.660156 L 471.441406 612.410156 L 458.941406 612.503906 L 446.808594 613.441406 L 446.148438 613.378906 L 438.828125 612.6875 L 434.691406 612.292969 L 422.617188 610.550781 L 416.394531 607.261719 L 411.832031 604.847656 L 404.621094 595.242188 L 403.3125 581.078125 L 416.105469 575.300781 L 430.863281 576.613281 L 431.375 575.042969 L 433.941406 567.222656 L 435.070312 563.765625 L 446.546875 558.945312 L 456.476562 567.359375 L 460.636719 578.175781 L 464.515625 589.308594 L 468.480469 600.441406 Z M 461.847656 603.277344 C 458.449219 598.898438 452.429688 596.242188 448.324219 592.382812 C 444.222656 588.523438 440.371094 584.40625 436.242188 580.578125 C 434.558594 579.019531 432.207031 581.394531 433.734375 583.085938 C 437.851562 587.65625 441.601562 592.523438 446.003906 596.824219 C 449.863281 600.59375 455.21875 605.570312 460.890625 605.574219 C 462.175781 605.574219 462.523438 604.15625 461.847656 603.277344 Z M 508.804688 450.875 L 508.449219 447.046875 L 512.457031 445.234375 L 518.707031 442.414062 L 521.242188 441.269531 L 535.996094 442.578125 L 536.359375 441.46875 L 538.5 434.9375 L 540.207031 429.730469 L 551.683594 424.914062 L 561.613281 433.328125 L 565.773438 444.140625 L 569.652344 455.273438 L 573.617188 466.40625 L 576.578125 478.375 L 564.078125 478.46875 L 555.710938 479.113281 L 551.941406 479.40625 L 549.652344 479.1875 L 539.828125 478.257812 L 538 477.996094 L 527.753906 476.515625 L 519.738281 472.277344 L 516.96875 470.8125 L 511.765625 463.875 L 509.765625 461.207031 Z M 537.625 448.414062 C 546.742188 454.242188 557.5 459.019531 563.824219 468.140625 C 564.347656 468.886719 565.425781 468.417969 565.265625 467.535156 C 562.898438 454.398438 550.175781 450.246094 539.578125 445.078125 C 537.347656 443.984375 535.503906 447.0625 537.625 448.414062 Z M 616.867188 633.496094 L 604.371094 633.589844 L 592.230469 634.527344 L 587.089844 634.039062 L 581.335938 633.496094 L 580.121094 633.378906 L 568.046875 631.640625 L 557.253906 625.933594 L 550.050781 616.332031 L 548.742188 602.167969 L 561.53125 596.390625 L 570.261719 597.164062 L 576.289062 597.699219 L 577.023438 595.457031 L 580.5 584.851562 L 591.980469 580.035156 L 601.910156 588.449219 L 606.070312 599.261719 L 609.941406 610.394531 L 613.90625 621.527344 Z M 599.058594 624.261719 C 598.4375 622.050781 598.195312 619.945312 597.105469 617.894531 C 595.894531 615.628906 593.839844 613.570312 592.070312 611.753906 C 588.484375 608.074219 583.765625 605.304688 579.300781 602.863281 C 577.515625 601.894531 576.007812 604.5 577.714844 605.589844 C 581.496094 608.015625 585.039062 610.671875 588.238281 613.828125 C 589.878906 615.445312 591.386719 617.164062 592.738281 619.023438 C 594.183594 621.011719 596.085938 622.890625 597.257812 625.023438 C 597.800781 626.007812 599.359375 625.332031 599.058594 624.261719 Z M 272.882812 669.234375 L 283.941406 674.945312 L 283.859375 687.960938 L 280.484375 694.027344 L 278.226562 698.085938 L 277.453125 699.378906 L 272.171875 708.199219 L 266.171875 718.382812 L 258.886719 728.332031 L 250.796875 718.804688 L 242.292969 710.097656 L 235.40625 700.074219 L 228.996094 689.695312 L 226.449219 677.761719 L 229.199219 666.070312 L 239.222656 655.984375 L 248.433594 660.429688 L 251.863281 662.085938 L 255.234375 666.929688 L 260.324219 674.246094 Z M 261.53125 714.824219 C 261.21875 703.917969 261.574219 691.539062 258.835938 680.957031 C 258.589844 679.996094 257.109375 679.972656 256.875 680.957031 C 254.332031 691.597656 257.25 704.09375 258.382812 714.824219 C 258.589844 716.796875 261.589844 716.890625 261.53125 714.824219 Z M 447.535156 647.117188 L 449.734375 661.167969 L 445.101562 672.246094 L 436.039062 680.417969 L 424.765625 685.066406 L 413.300781 689.144531 L 409.917969 689.722656 L 402.582031 690.984375 L 401.304688 691.203125 L 389.164062 694.175781 L 389.101562 681.847656 L 390.21875 670.082031 L 391.25 658.335938 L 392.632812 646.835938 L 400.195312 636.246094 L 412.507812 638.109375 L 419.269531 648.796875 L 419.734375 649.53125 L 428.074219 646.617188 L 433.722656 644.648438 Z M 418.917969 656.027344 C 419 653.765625 416.078125 653.3125 414.945312 654.953125 C 412.402344 658.636719 410.855469 663.074219 408.578125 666.957031 C 406.054688 671.253906 403.257812 675.453125 400.46875 679.585938 C 399.269531 681.355469 401.964844 683.390625 403.40625 681.847656 C 409.746094 675.050781 418.570312 665.890625 418.917969 656.027344 Z M 303.507812 525.4375 L 315.058594 533.417969 L 311.226562 547.113281 L 302.414062 555.269531 L 298.300781 556.566406 L 290.925781 558.894531 L 290.773438 558.945312 L 278.582031 558.488281 L 266.464844 557.445312 L 254.6875 554.34375 L 242.410156 552.011719 L 247.472656 540.773438 L 253.371094 530.527344 L 259.183594 520.273438 L 265.214844 510.378906 L 276.496094 503.886719 L 286.925781 510.683594 L 288.152344 519.648438 L 288.757812 524.078125 L 295.90625 524.734375 Z M 283.757812 528.695312 C 280.113281 529.015625 277.183594 531.953125 274.332031 534.042969 C 270.496094 536.847656 266.832031 539.507812 262.378906 541.28125 C 260.738281 541.933594 261.359375 544.558594 263.132812 544 C 267.472656 542.628906 271.433594 540.578125 275.300781 538.203125 C 278.472656 536.253906 282.941406 533.933594 284.921875 530.71875 C 285.425781 529.902344 284.785156 528.605469 283.757812 528.695312 Z M 391.042969 547.359375 L 379.273438 544.257812 L 366.996094 541.925781 L 372.050781 530.679688 L 377.953125 520.441406 L 383.765625 510.183594 L 389.800781 500.289062 L 401.078125 493.796875 L 411.503906 500.59375 L 412.261719 506.117188 L 413.339844 513.992188 L 419.328125 514.542969 L 428.09375 515.347656 L 439.636719 523.328125 L 435.804688 537.027344 L 426.992188 545.183594 L 425.796875 545.558594 L 420.105469 547.355469 L 415.351562 548.855469 L 403.167969 548.402344 Z M 380.09375 532.257812 C 384.890625 531.277344 389.332031 529.65625 393.683594 527.445312 C 397.964844 525.269531 403.25 522.855469 406.042969 518.820312 C 406.785156 517.742188 405.566406 516.667969 404.523438 516.839844 C 400.367188 517.539062 396.605469 520.578125 392.992188 522.648438 C 388.613281 525.160156 384.027344 527.5625 379.253906 529.21875 C 377.335938 529.882812 378.101562 532.664062 380.09375 532.257812 Z M 538.980469 567.515625 L 526.855469 566.472656 L 523.6875 565.636719 L 515.085938 563.371094 L 502.808594 561.042969 L 507.867188 549.796875 L 513.765625 539.554688 L 519.582031 529.300781 L 525.613281 519.40625 L 536.890625 512.914062 L 538.324219 513.847656 L 547.316406 519.714844 L 549.121094 532.867188 L 549.152344 533.105469 L 555.757812 533.714844 L 563.90625 534.460938 L 575.453125 542.445312 L 571.621094 556.140625 L 562.804688 564.296875 L 558.507812 565.652344 L 551.171875 567.972656 L 550.523438 567.949219 Z M 533.304688 545.757812 C 538.109375 544.082031 543.117188 543.667969 547.914062 542 C 548.640625 541.746094 548.683594 540.714844 547.914062 540.476562 C 536.445312 536.980469 523.890625 544.148438 515.785156 552.023438 C 514.292969 553.472656 516.464844 555.484375 518.011719 554.25 C 522.625 550.566406 527.726562 547.703125 533.304688 545.757812 Z M 432.933594 716.410156 L 437.375 726.210938 L 436.242188 735.226562 L 431.289062 743.015625 L 424.003906 748.6875 L 416.472656 753.976562 L 408.144531 757.914062 L 399.894531 762.53125 L 397.351562 753.558594 L 395.785156 744.757812 L 394.15625 735.984375 L 392.835938 727.316406 L 396.210938 718.0625 L 405.566406 716.929688 L 407.511719 718.695312 L 413.148438 723.800781 L 416.898438 721.195312 L 422.355469 717.40625 Z M 414.058594 735.121094 C 414.042969 733.957031 412.375 733 411.539062 734.074219 C 408.996094 737.347656 407.335938 742.160156 407.117188 746.316406 C 406.984375 748.691406 410.238281 748.792969 410.980469 746.839844 C 412.359375 743.234375 414.109375 738.992188 414.058594 735.121094 Z M 573.617188 673.964844 L 577.761719 675.578125 L 577.335938 686.328125 L 572.277344 693.875 L 564.351562 698.617188 L 555.296875 700.414062 L 546.191406 701.769531 L 536.984375 701.546875 L 527.53125 701.976562 L 529.292969 692.816406 L 531.84375 684.246094 L 534.324219 675.671875 L 537.035156 667.335938 L 544.207031 660.585938 L 553.074219 663.765625 L 556.765625 673.304688 L 565.144531 672.113281 L 567.867188 671.726562 Z M 550.5 685.71875 C 544.621094 686.417969 538.589844 689.605469 534.996094 694.347656 C 533.769531 695.972656 536.359375 697.773438 537.730469 696.457031 C 541.738281 692.613281 547.5625 692.179688 551.777344 688.804688 C 552.960938 687.851562 552.023438 685.542969 550.5 685.71875 Z M 229.914062 458.007812 L 222.867188 448.050781 L 219.585938 436.292969 L 221.601562 424.460938 L 230.984375 413.761719 L 243.980469 419.070312 L 253.179688 430.683594 L 258.097656 428.355469 L 265.402344 424.894531 L 268.246094 426.148438 L 276.796875 429.914062 L 277.519531 442.90625 L 272.53125 453.363281 L 267.109375 463.835938 L 261.761719 474.367188 L 255.105469 484.75 L 246.441406 475.746094 L 239.152344 469.15625 L 237.414062 467.582031 L 234.394531 463.726562 Z M 249.210938 454.65625 C 249.164062 459.710938 249.824219 464.140625 251.984375 468.71875 C 252.976562 470.828125 255.90625 469.25 255.523438 467.226562 C 254.640625 462.5625 254.523438 457.710938 254.660156 452.976562 C 254.761719 449.5 255.25 445.617188 253.585938 442.464844 C 253.050781 441.445312 251.476562 441.476562 250.925781 442.464844 C 248.988281 445.941406 249.246094 450.761719 249.210938 454.65625 Z M 200.738281 480.613281 L 206.796875 486.867188 L 206.738281 487.03125 L 203.375 496.820312 L 196.441406 503.132812 L 189.1875 509.320312 L 181.957031 515.582031 L 173.804688 521.328125 L 170.054688 511.933594 L 165.773438 503.058594 L 163.074219 493.585938 L 160.828125 483.976562 L 161.957031 474.167969 L 167.082031 465.914062 L 177.371094 460.765625 L 185.496094 468.71875 L 188.851562 480.222656 L 199.78125 479.625 Z M 182.613281 486.140625 C 174.25 487.875 172.863281 500.171875 173.277344 506.941406 C 173.429688 509.496094 176.988281 509.449219 177.210938 506.941406 C 177.550781 503.183594 178.367188 499.332031 179.875 495.855469 C 181.101562 493.023438 183.285156 490.652344 184.148438 487.671875 C 184.421875 486.710938 183.515625 485.949219 182.613281 486.140625 Z M 274.863281 378.8125 L 268.109375 368.296875 L 279.753906 364.234375 L 291.246094 361.472656 L 302.691406 358.632812 L 314.023438 356.203125 L 326.496094 359.917969 L 328.734375 372.164062 L 320.65625 382.234375 L 320.273438 382.710938 L 324.734375 388.378906 L 329.4375 394.347656 L 331.585938 408.214844 L 319.007812 414.859375 L 307.023438 414.074219 L 296.347656 408.160156 L 290.417969 401.421875 L 288.289062 399.003906 L 286.128906 396.289062 L 280.710938 389.484375 Z M 284.046875 377.164062 C 287.667969 381.261719 291.628906 384.265625 296.523438 386.710938 C 300.171875 388.539062 305.3125 390.90625 309.351562 389.339844 C 310.53125 388.886719 310.792969 387.4375 309.699219 386.703125 C 306.578125 384.609375 302.265625 384.332031 298.792969 382.835938 C 294.339844 380.914062 290.015625 378 286.277344 374.941406 C 284.71875 373.660156 282.6875 375.621094 284.046875 377.164062 Z M 284.046875 377.164062"/></g></svg>