<svg xmlns="http://www.w3.org/2000/svg" width="810" viewBox="0 0 810 810" height="810" version="1.0"><path fill="#FFF" d="M 762.683594 260.644531 C 753.859375 240.59375 745.839844 223.753906 737.820312 206.109375 C 733.246094 196.566406 727.902344 187.476562 721.78125 178.84375 C 717.457031 171.804688 712.109375 165.65625 705.742188 160.398438 C 686.496094 140.347656 665.644531 121.097656 645.59375 102.652344 C 640.09375 97.851562 634.214844 93.574219 627.949219 89.820312 L 608.703125 75.386719 L 587.851562 63.355469 C 581.617188 60.476562 575.738281 57 570.207031 52.929688 C 568 50.777344 565.621094 48.824219 563.082031 47.074219 C 560.539062 45.324219 557.871094 43.796875 555.070312 42.5 C 552.269531 41.203125 549.382812 40.152344 546.402344 39.34375 C 543.421875 38.539062 540.398438 37.988281 537.328125 37.695312 C 532.070312 36.304688 526.992188 34.433594 522.089844 32.078125 C 497.226562 24.058594 476.375 14.4375 453.117188 8.824219 C 430.066406 4.25 406.808594 1.3125 383.347656 0 C 365.617188 -0.746094 348.238281 1.394531 331.21875 6.417969 C 314.375 13.632812 296.734375 20.050781 279.089844 25.664062 C 266.246094 29.574219 253.945312 34.773438 242.1875 41.261719 C 230.433594 47.746094 219.476562 55.378906 209.316406 64.160156 C 202.117188 69.90625 194.632812 75.253906 186.863281 80.199219 C 174.027344 87.8125 162.136719 96.6875 151.191406 106.824219 C 140.242188 116.964844 130.476562 128.136719 121.902344 140.347656 C 96.128906 178.222656 74.472656 218.320312 56.941406 260.644531 C 47.617188 284.195312 39.863281 308.257812 33.683594 332.820312 C 28.320312 350.113281 24.160156 367.6875 21.207031 385.550781 C 18.25 403.410156 16.53125 421.390625 16.039062 439.484375 C 15.648438 453.101562 16.460938 466.648438 18.480469 480.121094 C 20.503906 493.59375 23.699219 506.78125 28.070312 519.683594 C 31.433594 531.644531 35.976562 543.140625 41.703125 554.167969 C 47.265625 567.328125 53.949219 579.894531 61.753906 591.863281 C 75.386719 610.308594 92.226562 627.949219 105.863281 646.394531 C 122.859375 667.828125 141.519531 687.695312 161.84375 706 C 182.167969 724.308594 203.875 740.792969 226.960938 755.464844 C 236.171875 762.96875 246.128906 769.296875 256.835938 774.449219 C 267.542969 779.597656 278.703125 783.429688 290.316406 785.941406 C 316.628906 793.558594 343.363281 799.171875 370.515625 802.78125 C 385.9375 804.15625 401.394531 804.796875 416.878906 804.710938 C 432.363281 804.621094 447.808594 803.804688 463.214844 802.257812 C 478.621094 800.707031 493.921875 798.4375 509.113281 795.445312 C 524.308594 792.453125 539.324219 788.75 554.167969 784.335938 L 561.386719 784.335938 C 570.078125 782.671875 578.652344 780.519531 587.101562 777.878906 C 595.550781 775.242188 603.824219 772.136719 611.921875 768.558594 C 620.019531 764.984375 627.890625 760.960938 635.53125 756.492188 C 643.171875 752.023438 650.535156 747.136719 657.625 741.832031 C 663.953125 736.898438 670.09375 731.738281 676.046875 726.359375 C 682 720.976562 687.75 715.386719 693.296875 709.585938 C 698.84375 703.785156 704.171875 697.789062 709.28125 691.601562 C 714.390625 685.410156 719.269531 679.042969 723.914062 672.5 C 728.558594 665.957031 732.960938 659.25 737.117188 652.386719 C 741.273438 645.523438 745.175781 638.515625 748.820312 631.363281 C 752.46875 624.214844 755.847656 616.945312 758.964844 609.546875 C 762.082031 602.152344 764.925781 594.652344 767.496094 587.050781 C 774.539062 569.097656 779.886719 550.652344 783.535156 531.714844 C 787.515625 514.230469 790.3125 496.5625 791.921875 478.703125 C 793.535156 460.847656 793.945312 442.960938 793.160156 425.050781 C 789.902344 376.46875 782.152344 328.617188 769.902344 281.496094 C 767.855469 274.421875 765.449219 267.46875 762.683594 260.644531 Z M 762.683594 260.644531"/></svg>